<?xml version="1.0" encoding="UTF-8"?>
<svg xmlns="http://www.w3.org/2000/svg" viewBox="0 0 1000 1000">
  <defs>
    <style>
      .cls-1 {
        fill: #f9c1d1;
      }

      .cls-2 {
        fill: #fae264;
      }

      .cls-3 {
        fill: #f6b0c9;
      }

      .cls-4 {
        fill: #f17894;
      }

      .cls-5 {
        fill: #f59bae;
      }
    </style>
  </defs>
  <g id="Leafs">
    <path id="Base_Petal" class="cls-1" d="M576.92,363.38l23.84-34.94c55.85-79.99,156.5-167.94,252.03-86.22,25.64,21.94,12.73,21.75,1.05,47.92.56,6.5,25.39.49,29.78.71,9.27.47,12.74,15.75,14.85,23.3,18,64.44-11.25,123.64-68.2,155.13-47.07,26.03-106.47,37.67-159.28,45.2,50.77,12.36,108.3,32.07,151.52,62.01,54.02,37.43,78.77,104.43,49.68,166.31-1.43,3.04-8.38,15.83-10.58,16.57-8.67,2.94-24.81-6.48-35-3.33-1.61,8.9,12.63,25.72,10.6,33.06-2.92,10.59-41.23,29.79-52.2,32.99-92.19,26.85-150.6-41.76-194.37-111.45l-31.8-59.55c3.92,51.29,2.4,108.17-11.01,158.18-17.63,65.74-72.1,110.01-141.87,104.15-35.76-3-17.27-13.34-29.17-37.89-8.19-2.56-20.99,20.98-29.83,19-3.81-.85-18.64-12.14-22.5-15.42-10.99-9.32-21.77-21.9-28.94-34.39-55.49-96.72,31.55-189.88,95.03-255.14-46.44,16.68-99.55,33.69-149.29,36.15-68.35,3.38-142.21-43.81-145.68-116.78-.89-18.75,29.1-18,30.8-25.26,1.51-6.48-27.35-15.7-28.55-21.88-2.57-13.2,20.13-53.17,29.43-64.07,57.82-67.73,144.39-46.6,216.19-17.11,19.88,8.17,38.63,18.73,57.96,27.97-55.82-73.43-135.11-183.36-60.64-271.41,8.72-10.31,39.27-36.41,52.54-36.32,8.92.07,23.68,26.07,29.79,21.86,4.59-3.16.1-31.82,15.52-34.26,34.51-5.45,80.11,11.91,104.92,35.99,44.72,43.41,47.16,120.05,42.42,178.29-1.65,20.3-5.84,40.56-9.01,60.62Z"/>
  </g>
  <g id="Petal_Center">
    <g id="Petal_Center-2" data-name="Petal_Center">
      <path id="Pink_Base_Circle" class="cls-4" d="M590,449.07c47.41,56.86,9.14,142.4-64.76,145.31-55,2.47-101.15-46.44-92.68-101.35,11.62-75.27,108.13-101.96,157.31-44.11l.13.15Z"/>
      <path id="Yellow_Base_Circle" class="cls-2" d="M518.68,454.29c66.6-2.51,72.08,96.77,8.45,102.68-71.91,6.68-75.75-100.15-8.45-102.68Z"/>
      <path id="Stick_01" class="cls-5" d="M589.4,448.3c15.52-5.92,95.17-65.44,103.75-64.73,7.61.63,8.64,9.42,3.49,14.15l-98.19,63.25c-1.43-2.68-6.89-10.07-9.05-12.67Z"/>
      <path id="Stick_02" class="cls-5" d="M431.83,497.95c-.45,4.81-.27,11.37,0,16.28-8.51-1.75-19.41-3.05-28.06-3.6-26.42-1.67-59.47-.24-84.86-3.8-15.1-2.12-15.35-15.18-3.55-15.45l116.47,6.56Z"/>
      <path id="Stick_03" class="cls-5" d="M492.37,589.6l-40.03,105.63c-3.44,11.88-17.69,10.48-14.85-2.03l42.22-109.03c2.72,1.25,10.6,4.94,12.67,5.43Z"/>
      <path id="Stick_04" class="cls-5" d="M585.33,568.13c1.99-2.12,7.71-8.78,9.05-10.86l86.87,69.64c11.72,5.83,6.01,20.83-4.23,15.14l-91.69-73.92Z"/>
      <path id="Stick_05" class="cls-5" d="M502.71,419.65c-3.16.6-9.55,2.48-12.67,3.62l-30.44-113.6c-.36-8.47,11.27-12.47,14.32-3.26l28.79,113.24Z"/>
    </g>
  </g>
  <g id="Outside_Circles">
    <path id="Outside_Circle_01" class="cls-3" d="M154.14,757.2c-15.44-15.44,7.28-41.56,24.77-25.67,17.72,16.11-8.44,42-24.77,25.67Z"/>
    <path id="Outside_Circle_02" class="cls-3" d="M882.16,494.06c29.58-6.74,31.96,34.95,5.04,34.15-20.9-.62-22.2-30.23-5.04-34.15Z"/>
    <path id="Outside_Circle_03" class="cls-3" d="M665.07,855.97c36.04-7.36,37.28,48.14,1.52,42.9-22.69-3.33-23.21-38.47-1.52-42.9Z"/>
    <path id="Outside_Circle_04" class="cls-3" d="M143.97,150.28c30.08-6.06,36.61,36.68,13.61,42.58-34.07,8.74-39.44-37.37-13.61-42.58Z"/>
  </g>
</svg>